

<svg xmlns="http://www.w3.org/2000/svg" version="1.1" xmlns:xlink="http://www.w3.org/1999/xlink" xmlns:svgjs="http://svgjs.dev/svgjs" width="2000" height="505" viewBox="0 0 2000 505"><g transform="matrix(1,0,0,1,-1.2121212121212466,-0.8314054117740852)"><svg viewBox="0 0 396 100" data-background-color="#ffffff" preserveAspectRatio="xMidYMid meet" height="505" width="2000" xmlns="http://www.w3.org/2000/svg" xmlns:xlink="http://www.w3.org/1999/xlink"><g id="tight-bounds" transform="matrix(1,0,0,1,0.2400000000000091,0.16463473500476766)"><svg viewBox="0 0 395.52 99.67073052999045" height="99.67073052999045" width="395.52"><g><svg viewBox="0 0 547.7322143690697 138.02808945432471" height="99.67073052999045" width="395.52"><g transform="matrix(1,0,0,1,152.21221436906973,38.97260698095982)"><svg viewBox="0 0 395.52 60.08287549240508" height="60.08287549240508" width="395.52"><g id="textblocktransform"><svg viewBox="0 0 395.52 60.08287549240508" height="60.08287549240508" width="395.52" id="textblock"><g><svg viewBox="0 0 395.52 60.08287549240508" height="60.08287549240508" width="395.52"><g transform="matrix(1,0,0,1,0,0)"><svg width="395.52" viewBox="2.05 -32.45 222.39249999999998 33.787031250000005" height="60.08287549240508" data-palette-color="#999999"><path d="M35.65-9.35L35.65-9.35Q35.6-8.95 35.58-8.47 35.55-8 35.5-7.55L35.5-7.55Q35.45-7.15 35.45-6.8 35.45-6.45 35.3-6.05L35.3-6.05Q35.2-5.8 35.2-5.53 35.2-5.25 35.2-4.95L35.2-4.95Q35.2-4.7 35.2-4.42 35.2-4.15 35.15-3.9L35.15-3.9Q35.1-3.5 35.02-3.08 34.95-2.65 34.85-2.25L34.85-2.25Q34.8-2.05 34.7-1.83 34.6-1.6 34.5-1.45L34.5-1.45 34.15-1.1Q33.85-0.8 33.45-0.9L33.45-0.9Q33.2-1 32.98-1.05 32.75-1.1 32.5-0.9L32.5-0.9Q32.15-1.15 31.65-1.3L31.65-1.3 31.1-1.3Q31-1.3 30.9-1.35 30.8-1.4 30.7-1.4L30.7-1.4Q30.55-1.35 30.4-1.3 30.25-1.25 30.15-1.2L30.15-1.2Q29.85-1.2 29.75-1.25L29.75-1.25Q29.2-1.7 29.2-2.35L29.2-2.35Q29.15-2.9 29-3.43 28.85-3.95 28.7-4.5L28.7-4.5Q28.8-4.9 28.78-5.35 28.75-5.8 28.8-6.25L28.8-6.25Q28.85-6.5 28.83-6.78 28.8-7.05 29-7.3L29-7.3Q29-7.9 29.15-8.65L29.15-8.65Q29.2-8.85 29.15-9.1L29.15-9.1Q29.1-9.6 28.98-10.08 28.85-10.55 28.6-11L28.6-11Q28.5-11.2 28.38-11.38 28.25-11.55 28-11.6L28-11.6Q27.8-11.75 27.55-11.85 27.3-11.95 27.1-12.05L27.1-12.05Q26.75-11.9 26.5-11.85L26.5-11.85Q26.4-11.9 26.25-11.95 26.1-12 26-12.05L26-12.05Q25.95-12 25.88-12 25.8-12 25.75-11.95L25.75-11.95Q25.45-11.5 25-11.2L25-11.2Q24.8-11.15 24.6-10.98 24.4-10.8 24.2-10.65L24.2-10.65Q24.05-10.5 23.83-10.45 23.6-10.4 23.35-10.3L23.35-10.3Q23.3-10.15 23.28-10 23.25-9.85 23.15-9.7L23.15-9.7Q23.1-9.6 23.03-9.45 22.95-9.3 22.9-9.2L22.9-9.2Q22.65-8.5 22.6-7.9L22.6-7.9Q22.55-7.75 22.55-7.6L22.55-7.6Q22.65-7.3 22.53-7.13 22.4-6.95 22.3-6.75L22.3-6.75Q22.25-5.9 22.23-5.05 22.2-4.2 22.15-3.35L22.15-3.35Q22.15-3.05 22.1-2.85L22.1-2.85Q22-2.55 21.93-2.23 21.85-1.9 21.75-1.55L21.75-1.55 20.7-1.75Q20.45-1.75 20.15-1.75 19.85-1.75 19.55-1.8L19.55-1.8 18.55-1.8Q18.2-1.8 17.85-1.8 17.5-1.8 17.15-1.85L17.15-1.85Q16.6-1.85 16.35-2.25L16.35-2.25Q16.15-2.85 16-3.48 15.85-4.1 15.85-4.75L15.85-4.75Q15.85-4.95 15.88-5.15 15.9-5.35 16-5.5L16-5.5Q16.1-5.9 16.13-6.2 16.15-6.5 16.15-6.85L16.15-6.85Q16.1-7.55 16.18-8.3 16.25-9.05 16.2-9.75L16.2-9.75Q16.15-9.95 16.15-10.1 16.15-10.25 16.15-10.4L16.15-10.4Q16.1-10.65 16-10.85 15.9-11.05 15.95-11.25L15.95-11.25Q15.95-11.5 15.98-11.75 16-12 16-12.25L16-12.25Q15.85-12.45 15.73-12.6 15.6-12.75 15.4-12.95L15.4-12.95Q15.25-12.95 15.08-12.98 14.9-13 14.7-13.05L14.7-13.05Q14.5-13.15 14.23-13.3 13.95-13.45 13.7-13.55L13.7-13.55Q13.5-13.65 13.28-13.75 13.05-13.85 12.9-13.9L12.9-13.9Q12.5-13.75 12.05-13.5L12.05-13.5Q11.9-13.45 11.73-13.43 11.55-13.4 11.35-13.35L11.35-13.35Q11.1-13.1 10.83-12.85 10.55-12.6 10.25-12.3L10.25-12.3Q10.15-12.1 10.05-11.88 9.95-11.65 9.85-11.4L9.85-11.4Q9.55-10.7 9.38-9.98 9.2-9.25 9.2-8.4L9.2-8.4 9.2-6.75Q9.2-5.9 9.1-5.08 9-4.25 8.85-3.4L8.85-3.4Q8.8-3.05 8.68-2.75 8.55-2.45 8.45-2.05L8.45-2.05Q8.2-1.7 7.9-1.43 7.6-1.15 7.2-1.05L7.2-1.05Q6.5-1.1 6.28-1.07 6.05-1.05 5.35-0.8L5.35-0.8Q5.15-0.75 4.98-0.7 4.8-0.65 4.55-0.6L4.55-0.6Q4.3-0.55 4.1-0.6 3.9-0.65 3.4-0.8L3.4-0.8Q3.2-1.1 2.93-1.45 2.65-1.8 2.4-2.15L2.4-2.15Q2.45-2.3 2.48-2.45 2.5-2.6 2.55-2.7L2.55-2.7Q2.65-3.35 2.55-3.95L2.55-3.95Q2.4-4.55 2.3-5.15 2.2-5.75 2.05-6.25L2.05-6.25Q2.05-6.65 2.23-6.9 2.4-7.15 2.45-7.55L2.45-7.55Q2.55-7.9 2.58-8.38 2.6-8.85 2.65-9.3L2.65-9.3Q2.65-9.8 2.65-10.28 2.65-10.75 2.75-11.15L2.75-11.15Q2.75-11.5 2.7-11.6L2.7-11.6Q2.55-12.6 2.8-13.55L2.8-13.55Q2.9-13.8 2.93-13.98 2.95-14.15 3-14.25L3-14.25Q3.15-14.55 3.4-14.65 3.65-14.75 3.85-14.95L3.85-14.95Q4.1-15.4 3.98-15.85 3.85-16.3 3.8-16.8L3.8-16.8Q3.9-17.05 4-17.32 4.1-17.6 4.15-17.9L4.15-17.9Q4.55-18.3 4.88-18.75 5.2-19.2 5.5-19.6L5.5-19.6Q5.6-19.7 5.6-19.95L5.6-19.95Q5.6-20.2 5.8-20.3L5.8-20.3Q5.9-20.35 6.03-20.38 6.15-20.4 6.2-20.45L6.2-20.45Q7.05-20.7 7.9-20.95 8.75-21.2 9.55-21.55L9.55-21.55Q10.45-21.95 11.35-21.95L11.35-21.95Q11.45-21.95 11.55-21.98 11.65-22 11.8-22L11.8-22Q12.45-22.25 13.13-22.3 13.8-22.35 14.5-22.35L14.5-22.35 15.1-22.35Q15.35-22.3 15.63-22.23 15.9-22.15 16.15-21.95L16.15-21.95Q16.55-21.75 16.93-21.58 17.3-21.4 17.75-21.35L17.75-21.35Q17.95-21.3 18.07-21.18 18.2-21.05 18.35-20.95L18.35-20.95Q18.6-20.75 18.78-20.5 18.95-20.25 19.15-20L19.15-20Q19.25-19.8 19.33-19.58 19.4-19.35 19.45-19.1L19.45-19.1Q19.65-18.9 19.85-18.7 20.05-18.5 20.4-18.55L20.4-18.55Q20.65-18.8 20.9-19.03 21.15-19.25 21.35-19.5L21.35-19.5Q21.5-19.45 21.8-19.45L21.8-19.45 23.05-20.3Q23.15-20.55 23.25-20.7 23.35-20.85 23.4-21.05L23.4-21.05Q23.65-21.1 23.9-21.13 24.15-21.15 24.4-21.2L24.4-21.2Q24.75-21.4 25.05-21.53 25.35-21.65 25.65-21.85L25.65-21.85Q25.9-21.85 26.18-21.83 26.45-21.8 26.7-21.8L26.7-21.8Q26.9-21.75 27.13-21.78 27.35-21.8 27.55-21.7L27.55-21.7Q28.2-21.5 28.85-21.48 29.5-21.45 30.15-21.35L30.15-21.35Q30.25-21.25 30.55-21.25L30.55-21.25 31.65-20.2Q31.65-20.15 31.7-20.1 31.75-20.05 31.75-20L31.75-20Q32.2-18.7 33.25-18.15L33.25-18.15Q33.3-18.05 33.33-17.88 33.35-17.7 33.4-17.6L33.4-17.6Q33.7-17.3 34.05-17.3L34.05-17.3Q34.65-17.2 34.6-16.75L34.6-16.75Q34.6-16.15 34.77-15.55 34.95-14.95 35.15-14.4L35.15-14.4 35.5-13.15Q35.5-12.8 35.52-12.35 35.55-11.9 35.55-11.5L35.55-11.5Q35.55-11.3 35.58-11.13 35.6-10.95 35.65-10.75L35.65-10.75Q35.8-10.1 35.65-9.35ZM62.05-13.65L62.05-13.65Q62.2-13.05 62-12.55L62-12.55Q61.9-12.3 61.85-12.05 61.8-11.8 61.85-11.55L61.85-11.55Q61.9-11.5 61.87-11.43 61.85-11.35 61.85-11.25L61.85-11.25Q61.65-10.85 61.67-10.4 61.7-9.95 61.75-9.55L61.75-9.55 61.25-8.85 61.25-8.2Q61.15-8.1 61-7.98 60.85-7.85 60.6-7.65L60.6-7.65Q60.5-7.3 60.32-6.9 60.15-6.5 60.05-6.15L60.05-6.15 60.05-5.65Q59.85-5.45 59.55-5.3 59.25-5.15 59.05-4.85L59.05-4.85Q58.85-4.7 58.65-4.6 58.45-4.5 58.2-4.35L58.2-4.35Q58.1-4.3 57.97-4.33 57.85-4.35 57.75-4.3L57.75-4.3Q57-4.3 57-3.6L57-3.6Q56.45-3.25 55.92-2.85 55.4-2.45 54.85-2.05L54.85-2.05Q54-1.4 52.65-1.15L52.65-1.15Q52.2-1.1 51.8-0.93 51.4-0.75 50.95-0.65L50.95-0.65Q50.85-0.65 50.7-0.7 50.55-0.75 50.45-0.7L50.45-0.7Q49.85-0.65 49.2-0.8L49.2-0.8Q49-0.85 48.8-0.8 48.6-0.75 48.45-0.7L48.45-0.7Q48.1-0.75 47.75-0.8 47.4-0.85 47-0.9L47-0.9Q46.55-1.1 46.17-1.35 45.8-1.6 45.4-1.8L45.4-1.8Q45.1-1.9 44.85-2.15 44.6-2.4 44.45-2.65L44.45-2.65Q44.4-2.75 44.32-2.83 44.25-2.9 44.15-3L44.15-3Q44-3.1 43.85-3.18 43.7-3.25 43.55-3.4L43.55-3.4Q42.75-3.95 42.12-4.6 41.5-5.25 41.2-6.2L41.2-6.2Q40.95-6.85 40.6-7.35L40.6-7.35Q40.5-7.55 40.37-7.73 40.25-7.9 40.15-8.1L40.15-8.1Q40.2-8.2 40.3-8.5L40.3-8.5Q40.2-8.65 40.1-8.8 40-8.95 40-9.15L40-9.15Q40-9.3 39.97-9.47 39.95-9.65 40-9.85L40-9.85Q40.1-10.2 40.05-10.55 40-10.9 40.05-11.25L40.05-11.25Q40.1-11.55 40.02-11.9 39.95-12.25 40.1-12.55L40.1-12.55Q40.2-12.9 40.25-13.2 40.3-13.5 40.4-13.8L40.4-13.8Q40.5-14.1 40.6-14.38 40.7-14.65 40.8-14.9L40.8-14.9Q40.9-15.2 41-15.5 41.1-15.8 41.3-16.15L41.3-16.15Q41.3-16.25 41.3-16.4 41.3-16.55 41.35-16.6L41.35-16.6Q41.55-17 41.65-17.35 41.75-17.7 41.7-18.05L41.7-18.05Q41.9-18.3 42.05-18.45 42.2-18.6 42.3-18.8L42.3-18.8Q42.4-19.05 42.52-19.28 42.65-19.5 42.8-19.7L42.8-19.7Q42.95-20.1 43.25-20.4L43.25-20.4Q43.45-20.65 43.6-20.83 43.75-21 43.85-21.1L43.85-21.1Q44-21.4 43.95-21.63 43.9-21.85 43.9-22L43.9-22Q44-22.25 44.05-22.3L44.05-22.3Q44.2-22.35 44.32-22.45 44.45-22.55 44.6-22.6L44.6-22.6Q45-22.85 45.45-23.1 45.9-23.35 46.35-23.5L46.35-23.5Q46.8-23.8 47.27-23.93 47.75-24.05 48.25-24.2L48.25-24.2Q48.65-24.2 49.05-24.2 49.45-24.2 49.8-24.15L49.8-24.15 50.25-24.15Q50.8-23.95 51.37-23.95 51.95-23.95 52.5-24L52.5-24Q52.75-24 53.02-24.03 53.3-24.05 53.55-24.05L53.55-24.05Q53.8-23.85 53.97-23.73 54.15-23.6 54.35-23.4L54.35-23.4Q54.5-23.35 54.65-23.25 54.8-23.15 55-23.1L55-23.1Q55.7-23.05 56.27-22.65 56.85-22.25 57.35-21.85L57.35-21.85Q57.35-21.75 57.35-21.58 57.35-21.4 57.4-21.25L57.4-21.25Q57.4-21 57.7-20.8L57.7-20.8Q57.85-20.75 58.05-20.75 58.25-20.75 58.45-20.65L58.45-20.65Q58.55-20.45 58.72-20.2 58.9-19.95 59.05-19.7L59.05-19.7Q59.25-19.5 59.45-19.3 59.65-19.1 59.75-18.85L59.75-18.85Q59.85-18.75 59.92-18.6 60-18.45 60.05-18.35L60.05-18.35Q60.2-18.2 60.35-18.05 60.5-17.9 60.55-17.65L60.55-17.65Q60.65-17.3 60.85-16.95 61.05-16.6 61.15-16.2L61.15-16.2Q61.2-16.05 61.32-15.9 61.45-15.75 61.6-15.55L61.6-15.55Q61.7-15.1 61.77-14.6 61.85-14.1 62.05-13.65ZM55.05-11.85L55.05-11.85Q55.1-12.2 54.95-12.48 54.8-12.75 54.85-13.05L54.85-13.05Q54.85-13.15 54.7-13.3L54.7-13.3Q54.65-13.4 54.65-13.7L54.65-13.7Q54.7-13.8 54.7-13.98 54.7-14.15 54.7-14.2L54.7-14.2Q54.35-14.75 54.05-15.23 53.75-15.7 53.4-16.15L53.4-16.15Q53.4-16.25 53.3-16.28 53.2-16.3 53.1-16.45L53.1-16.45Q52.25-16.45 51.25-16.9L51.25-16.9Q50.65-17.2 49.8-16.95L49.8-16.95Q49.75-16.95 49.67-16.9 49.6-16.85 49.5-16.75L49.5-16.75 49.25-16.75Q48.45-16.9 48.2-16.15L48.2-16.15Q48.1-15.95 47.97-15.73 47.85-15.5 47.8-15.25L47.8-15.25Q47.75-15.05 47.6-14.83 47.45-14.6 47.35-14.4L47.35-14.4Q47.15-14.15 47-13.85 46.85-13.55 46.65-13.3L46.65-13.3Q46.6-12.8 46.42-12.3 46.25-11.8 46.2-11.35L46.2-11.35Q46.35-11.1 46.5-10.83 46.65-10.55 46.75-10.3L46.75-10.3Q47.05-9.65 47-9.05L47-9.05Q47-8.95 47.05-8.85 47.1-8.75 47.15-8.65L47.15-8.65Q47.6-8.55 48.02-8.45 48.45-8.35 48.85-8.2L48.85-8.2Q49.2-8.1 49.55-8.05 49.9-8 50.25-8.15L50.25-8.15 50.4-8.15Q50.8-8.05 51.17-8.13 51.55-8.2 52-8.3L52-8.3Q52.35-8.55 52.72-8.85 53.1-9.15 53.5-9.35L53.5-9.35Q53.85-10.05 54.35-10.6 54.85-11.15 55.05-11.85ZM86.5-20.6L86.5-20.6Q86.25-20.2 86.05-19.78 85.84-19.35 85.84-18.8L85.84-18.8Q85.45-18.55 85.12-18.15 84.8-17.75 84.55-17.3L84.55-17.3Q84.34-16.95 84.17-16.63 84-16.3 83.75-15.95L83.75-15.95Q83.7-15.85 83.57-15.95 83.45-16.05 83.4-16.2L83.4-16.2Q83.4-16.4 83.2-16.4L83.2-16.4Q83.05-16.4 82.95-16.25L82.95-16.25Q82.84-16.2 82.75-16.07 82.65-15.95 82.55-15.85L82.55-15.85Q82.5-15.8 82.37-15.78 82.25-15.75 82.15-15.7L82.15-15.7Q81.95-15.9 81.7-16.07 81.45-16.25 81.2-16.45L81.2-16.45Q80.9-16.55 80.59-16.65 80.3-16.75 80.05-16.8L80.05-16.8Q79.84-16.9 79.9-16.9L79.9-16.9Q79.75-17 79.65-17.15 79.55-17.3 79.3-17.2L79.3-17.2Q79.15-17.05 79.17-16.93 79.2-16.8 79.15-16.6L79.15-16.6Q78.8-16.6 78.65-16.55L78.65-16.55Q78.55-16.5 78.45-16.45 78.34-16.4 78.2-16.35L78.2-16.35Q78.05-16.4 77.84-16.43 77.65-16.45 77.4-16.5L77.4-16.5Q76.95-16.45 76.52-16.23 76.09-16 75.7-15.8L75.7-15.8Q75.4-15.75 75.25-15.4L75.25-15.4Q75.05-14.9 74.65-14.45 74.25-14 73.95-13.5L73.95-13.5Q73.9-13.4 73.8-13.23 73.7-13.05 73.59-12.9L73.59-12.9Q73.55-12.75 73.52-12.63 73.5-12.5 73.5-12.35L73.5-12.35Q73.59-12.05 73.7-11.95L73.7-11.95Q73.59-11.8 73.5-11.65 73.4-11.5 73.3-11.35L73.3-11.35Q73.34-11.2 73.34-11.05 73.34-10.9 73.4-10.8L73.4-10.8Q73.55-10.3 73.8-10L73.8-10Q73.95-9.8 74.05-9.58 74.15-9.35 74.3-9.05L74.3-9.05Q74.5-8.9 74.7-8.75 74.9-8.6 75.09-8.4L75.09-8.4Q75.3-8.2 75.47-8.03 75.65-7.85 75.8-7.65L75.8-7.65Q76-7.7 76.17-7.7 76.34-7.7 76.59-7.75L76.59-7.75Q76.7-7.7 76.82-7.68 76.95-7.65 77.05-7.6L77.05-7.6Q77.4-7.55 77.72-7.5 78.05-7.45 78.34-7.6L78.34-7.6Q78.75-7.7 79.2-7.83 79.65-7.95 80-8L80-8Q80.34-7.95 80.67-7.85 81-7.75 81.34-7.65L81.34-7.65Q81.7-7.9 82.07-8.08 82.45-8.25 82.9-8.3L82.9-8.3Q83.34-8.15 83.55-7.75L83.55-7.75Q83.75-7.5 83.87-7.2 84-6.9 84.15-6.6L84.15-6.6Q84.25-6.25 84.42-5.95 84.59-5.65 84.8-5.35L84.8-5.35Q84.95-5.15 85.12-4.9 85.3-4.65 85.4-4.45L85.4-4.45Q85.55-3.65 85.3-3.05L85.3-3.05Q84.95-2.8 84.59-2.5 84.25-2.2 83.9-1.9L83.9-1.9Q83.8-1.7 83.7-1.53 83.59-1.35 83.5-1.15L83.5-1.15Q83.3-1.1 83.09-1.03 82.9-0.95 82.7-0.8L82.7-0.8Q82.55-0.75 82.37-0.73 82.2-0.7 82-0.6L82-0.6Q81.7-0.4 81.25-0.15L81.25-0.15Q80.9-0.35 80.45-0.4L80.45-0.4Q80.09-0.15 79.65-0.15 79.2-0.15 78.8-0.05L78.8-0.05Q78.34 0 77.97-0.18 77.59-0.35 77.2-0.45L77.2-0.45 76.5-0.1 75.45-0.45Q75.25-0.4 75.02-0.4 74.8-0.4 74.55-0.35L74.55-0.35Q74.34-0.45 74.09-0.55 73.84-0.65 73.59-0.7L73.59-0.7Q73.45-0.7 73.27-0.7 73.09-0.7 72.9-0.65L72.9-0.65Q72.59-0.85 72.45-1L72.45-1Q72.25-1.15 72.05-1.33 71.84-1.5 71.59-1.55L71.59-1.55Q70.75-2 70.15-2.7L70.15-2.7Q69.8-3.1 69.42-3.48 69.05-3.85 68.55-4.2L68.55-4.2Q68.3-4.45 68-4.9L68-4.9Q67.9-5.55 67.55-6.13 67.2-6.7 66.84-7.25L66.84-7.25Q66.9-7.6 66.75-7.85 66.59-8.1 66.5-8.4L66.5-8.4Q66.59-8.8 66.57-9.28 66.55-9.75 66.59-10.25L66.59-10.25Q66.65-10.5 66.3-10.85L66.3-10.85Q66.3-11.05 66.42-11.13 66.55-11.2 66.59-11.35L66.59-11.35Q66.84-11.5 66.84-11.85L66.84-11.85Q66.75-11.95 66.67-12.13 66.59-12.3 66.5-12.4L66.5-12.4Q66.59-12.6 66.7-12.85 66.8-13.1 66.8-13.3L66.8-13.3 66.8-14.2Q67-14.5 67.2-14.65L67.2-14.65Q67.2-15.05 66.92-15.1 66.65-15.15 66.5-15.35L66.5-15.35Q66.84-16.5 66.97-16.78 67.09-17.05 67.55-17.7L67.55-17.7Q67.59-18.25 67.59-18.8 67.59-19.35 68-19.95L68-19.95Q68.09-20 68.25-20.15 68.4-20.3 68.55-20.45L68.55-20.45Q68.65-20.7 68.72-20.93 68.8-21.15 68.84-21.35L68.84-21.35Q69.15-21.6 69.45-21.83 69.75-22.05 70.09-22.3L70.09-22.3Q70.2-22.4 70.32-22.45 70.45-22.5 70.65-22.55L70.65-22.55Q70.9-22.6 71.09-22.75 71.3-22.9 71.5-23.05L71.5-23.05Q71.59-23 71.75-23 71.9-23 72.05-22.95L72.05-22.95Q72.45-23.05 72.75-23.3 73.05-23.55 73.4-23.85L73.4-23.85Q74-24 74.62-24.13 75.25-24.25 75.8-24.5L75.8-24.5Q76.15-24.5 76.47-24.35 76.8-24.2 77.15-24.4L77.15-24.4Q77.25-24.5 77.4-24.4L77.4-24.4Q77.9-24.4 78.42-24.35 78.95-24.3 79.45-24.25L79.45-24.25Q80.2-24.15 80.65-24.6L80.65-24.6Q80.7-24.65 80.75-24.7 80.8-24.75 80.84-24.8L80.84-24.8Q80.95-24.75 81.07-24.7 81.2-24.65 81.25-24.6L81.25-24.6Q82.5-23.5 84.09-23.35L84.09-23.35Q84.34-23.35 84.59-23.25 84.84-23.15 85.05-23.05L85.05-23.05 86.09-22Q86.59-21.6 86.45-21L86.45-21Q86.45-20.9 86.47-20.8 86.5-20.7 86.5-20.6ZM110.49-3.35L110.49-3.35Q109.94-2.5 109.09-2.2L109.09-2.2Q108.54-2 108.04-1.7 107.54-1.4 107.04-1.05L107.04-1.05Q106.94-0.85 106.64-0.8L106.64-0.8Q106.49-0.85 106.29-0.9 106.09-0.95 105.84-1L105.84-1 104.99-1.15Q104.64-1.4 104.39-1.68 104.14-1.95 103.89-2.25L103.89-2.25Q103.39-2.85 103.19-3 102.99-3.15 102.29-3.5L102.29-3.5Q102.04-4.05 101.84-4.63 101.64-5.2 101.69-5.25L101.69-5.25Q101.89-5.35 101.72-5.68 101.54-6 101.44-6.05L101.44-6.05Q101.14-6.25 101.09-6.25L101.09-6.25Q100.79-6.3 100.44-6.3 100.09-6.3 99.74-6.3L99.74-6.3Q99.54-6.45 99.34-6.55 99.14-6.65 98.89-6.75L98.89-6.75Q98.54-6.7 98.39-6.43 98.24-6.15 98.14-5.9L98.14-5.9Q98.09-5.75 98.09-5.45L98.09-5.45Q98.09-5.1 98.12-4.7 98.14-4.3 98.04-3.9L98.04-3.9Q97.94-3.55 97.92-3.2 97.89-2.85 97.89-2.45L97.89-2.45Q97.84-2.25 97.79-2 97.74-1.75 97.64-1.5L97.64-1.5Q97.44-1.15 97.37-0.75 97.29-0.35 97.04-0.05L97.04-0.05Q95.84 0.25 95.52 0.3 95.19 0.35 94.44 0.3L94.44 0.3Q94.34 0.35 94.24 0.4 94.14 0.45 93.99 0.5L93.99 0.5Q93.64 0.35 93.24 0.13 92.84-0.1 92.44-0.3L92.44-0.3Q92.09-0.5 92.09-0.85L92.09-0.85Q92.04-1.7 91.87-2.53 91.69-3.35 91.74-4.2L91.74-4.2Q91.59-4.8 91.62-5.45 91.64-6.1 91.54-6.75L91.54-6.75Q91.49-6.95 91.49-7.13 91.49-7.3 91.49-7.5L91.49-7.5Q91.59-7.9 91.64-8.4L91.64-8.4Q91.59-8.5 91.52-8.68 91.44-8.85 91.34-8.95L91.34-8.95Q91.19-9.45 91.24-9.85L91.24-9.85Q91.29-10.25 91.32-10.63 91.34-11 91.24-11.45L91.24-11.45Q91.24-11.7 91.27-11.88 91.29-12.05 91.34-12.25L91.34-12.25Q91.59-12.85 91.29-13.5L91.29-13.5Q91.19-13.9 91.04-14.3 90.89-14.7 90.74-15.1L90.74-15.1Q90.74-15.3 90.74-15.55 90.74-15.8 90.79-16.05L90.79-16.05Q90.79-16.6 90.82-17.13 90.84-17.65 90.79-18.15L90.79-18.15Q90.79-18.45 90.79-18.45L90.79-18.45Q90.89-18.8 90.92-19.18 90.94-19.55 90.99-19.9L90.99-19.9Q91.14-20.3 91.17-20.75 91.19-21.2 91.24-21.55L91.24-21.55Q91.24-22.4 91.39-23.15L91.39-23.15Q91.49-23.35 91.49-23.53 91.49-23.7 91.49-23.85L91.49-23.85Q91.49-24.1 91.42-24.3 91.34-24.5 91.34-24.7L91.34-24.7Q91.34-24.95 91.42-25.18 91.49-25.4 91.49-25.6L91.49-25.6 91.49-27.3Q91.54-27.8 91.54-28.3 91.54-28.8 91.59-29.35L91.59-29.35Q91.54-29.4 91.49-29.5 91.44-29.6 91.34-29.75L91.34-29.75Q91.24-30.05 91.49-30.05L91.49-30.05Q92.49-30.45 93.44-30.95L93.44-30.95Q93.54-30.95 93.59-30.98 93.64-31 93.69-31L93.69-31Q94.14-31.1 94.57-31.18 94.99-31.25 95.34-31.5L95.34-31.5Q95.44-31.65 95.79-31.65L95.79-31.65Q96.34-31.65 96.74-31.85L96.74-31.85Q97.09-31.95 97.34-31.88 97.59-31.8 97.84-31.7L97.84-31.7 97.84-31.3Q97.84-31.05 97.89-31L97.89-31Q97.89-30.9 97.99-30.9L97.99-30.9Q98.74-30.3 98.74-29.2L98.74-29.2Q98.74-29 98.77-28.8 98.79-28.6 98.84-28.35L98.84-28.35 98.84-27.95Q98.79-27.5 98.69-27.1 98.59-26.7 98.54-26.3L98.54-26.3Q98.64-25.8 98.72-25.28 98.79-24.75 98.59-24.25L98.59-24.25 98.59-23.8Q98.69-23.45 98.64-23.1 98.59-22.75 98.59-22.35L98.59-22.35 98.59-21.8Q98.74-21.3 98.67-20.8 98.59-20.3 98.49-19.85L98.49-19.85Q98.54-19.6 98.57-19.38 98.59-19.15 98.64-18.9L98.64-18.9Q98.59-18.65 98.54-18.38 98.49-18.1 98.44-17.85L98.44-17.85Q98.44-17.5 98.47-17.18 98.49-16.85 98.54-16.45L98.54-16.45Q98.49-16.2 98.44-15.88 98.39-15.55 98.29-15.25L98.29-15.25Q98.29-15.1 98.49-15L98.49-15Q98.49-15 98.52-15 98.54-15 98.59-15.05L98.59-15.05Q98.79-15.05 98.84-15.2L98.84-15.2Q99.24-15.65 99.79-16.05L99.79-16.05Q100.04-16.2 100.24-16.4 100.44-16.6 100.74-16.75L100.74-16.75Q100.89-16.8 101.19-17.1L101.19-17.1Q101.59-17.4 101.99-17.7 102.39-18 102.84-18.15L102.84-18.15Q103.29-18.7 103.49-19.1L103.49-19.1Q103.74-19.2 103.94-19.33 104.14-19.45 104.24-19.5L104.24-19.5Q104.39-19.65 104.49-19.8L104.49-19.8Q104.59-20.1 104.69-20.4 104.79-20.7 104.94-21L104.94-21Q105.29-21.3 105.62-21.6 105.94-21.9 106.29-22.25L106.29-22.25Q106.59-22.3 106.84-22.18 107.09-22.05 107.39-21.95L107.39-21.95Q107.89-21.15 108.57-20.5 109.24-19.85 109.94-19.25L109.94-19.25Q110.19-19.2 110.34-18.75 110.49-18.3 110.34-18L110.34-18Q110.19-17.95 110.02-17.8 109.84-17.65 109.59-17.55L109.59-17.55Q109.24-16.85 108.82-16.15 108.39-15.45 107.99-14.7L107.99-14.7Q107.84-14.4 107.69-14.13 107.54-13.85 107.29-13.65L107.29-13.65Q107.09-13.55 107.04-13.4 106.99-13.25 106.89-13.05L106.89-13.05Q106.69-12.55 106.44-12.2 106.19-11.85 105.84-11.5L105.84-11.5Q105.69-11.4 105.54-11.2 105.39-11 105.29-10.85L105.29-10.85Q105.24-10.8 105.24-10.7L105.24-10.7Q105.29-10.2 105.59-9.93 105.89-9.65 105.94-9.25L105.94-9.25Q106.19-9.15 106.42-9 106.64-8.85 106.84-8.75L106.84-8.75Q107.29-8.15 107.84-7.58 108.39-7 108.89-6.45L108.89-6.45Q109.39-5.95 109.79-5.38 110.19-4.8 110.44-4.15L110.44-4.15Q110.54-3.95 110.57-3.75 110.59-3.55 110.49-3.35ZM147.19-22.35L147.19-22.35Q146.94-21.45 146.89-20.53 146.84-19.6 146.79-18.7L146.79-18.7Q146.74-17.8 146.74-16.88 146.74-15.95 146.74-15.05L146.74-15.05Q146.74-14.3 146.64-13.55 146.54-12.8 146.49-12L146.49-12Q146.49-11.8 146.46-11.55 146.44-11.3 146.44-11.05L146.44-11.05Q146.44-10.35 146.24-9.75L146.24-9.75Q146.09-9.1 146.09-8.45L146.09-8.45Q146.09-8.1 146.04-7.7 145.99-7.3 145.84-6.9L145.84-6.9Q145.79-6.65 145.79-6.15L145.79-6.15Q145.74-5.75 145.59-5.35L145.59-5.35Q145.49-5 145.39-4.67 145.29-4.35 145.19-3.95L145.19-3.95Q144.99-3.65 144.81-3.33 144.64-3 144.44-2.7L144.44-2.7Q143.99-2.45 143.69-2.05L143.69-2.05Q143.19-1.65 142.71-1.2 142.24-0.75 141.79-0.35L141.79-0.35Q141.19 0.15 140.59 0.15L140.59 0.15Q140.54 0.15 140.46 0.2 140.39 0.25 140.29 0.25L140.29 0.25Q139.34 0.35 138.74 0.85L138.74 0.85Q138.69 0.9 138.61 0.93 138.54 0.95 138.44 1.05L138.44 1.05Q137.79 1.15 137.11 0.95 136.44 0.75 135.89 0.45L135.89 0.45 135.09 0.45Q134.89 0.45 134.69 0.43 134.49 0.4 134.24 0.35L134.24 0.35Q132.89 0.05 131.64-0.8L131.64-0.8Q131.49-0.95 131.29-1 131.09-1.05 130.84-1.1L130.84-1.1Q130.54-1.15 130.24-1.25 129.94-1.35 129.64-1.45L129.64-1.45Q129.39-1.6 129.24-1.88 129.09-2.15 128.94-2.35L128.94-2.35Q128.69-2.85 128.49-3.28 128.29-3.7 128.04-4.2L128.04-4.2Q127.84-4.6 127.59-5.03 127.34-5.45 127.09-5.8L127.09-5.8Q127.09-5.85 127.14-5.85 127.19-5.85 127.19-5.9L127.19-5.9 127.09-6Q127.09-5.95 127.06-5.93 127.04-5.9 127.04-5.85L127.04-5.85Q126.99-5.9 126.91-5.93 126.84-5.95 126.79-6L126.79-6Q126.59-6.1 126.49-6.33 126.39-6.55 126.29-6.75L126.29-6.75Q126.44-7.05 126.44-7.55L126.44-7.55Q126.54-8.2 126.39-8.7L126.39-8.7Q126.19-9.45 126.21-10.2 126.24-10.95 126.29-11.75L126.29-11.75Q126.29-12 126.49-12.4L126.49-12.4Q126.84-13.25 126.89-13.9L126.89-13.9Q127.39-14.6 127.69-15.4 127.99-16.2 128.39-16.9L128.39-16.9Q128.64-17 128.81-17.1 128.99-17.2 129.19-17.25L129.19-17.25Q129.29-17.35 129.34-17.5 129.39-17.65 129.54-17.75L129.54-17.75Q129.69-17.85 129.89-17.93 130.09-18 130.34-18.05L130.34-18.05Q130.44-18.2 130.51-18.35 130.59-18.5 130.69-18.65L130.69-18.65Q130.84-18.8 130.89-18.8L130.89-18.8Q132.04-19.2 133.29-19.4L133.29-19.4Q133.49-19.45 133.71-19.48 133.94-19.5 134.14-19.55L134.14-19.55Q134.79-19.75 135.44-19.7 136.09-19.65 136.74-19.7L136.74-19.7Q136.89-19.7 137.06-19.65 137.24-19.6 137.39-19.55L137.39-19.55Q137.54-19.55 137.79-19.45 138.04-19.35 138.09-19.45L138.09-19.45Q138.59-19.55 138.81-19.35 139.04-19.15 139.04-19.15L139.04-19.15Q139.14-19.1 139.46-19.13 139.79-19.15 139.84-19.15L139.84-19.15Q140.29-19.25 140.36-19.58 140.44-19.9 140.34-19.9L140.34-19.9 140.24-20Q140.29-20.65 140.21-21.3 140.14-21.95 140.19-22.6L140.19-22.6Q140.24-22.85 140.24-23.13 140.24-23.4 140.24-23.65L140.24-23.65Q140.19-23.9 140.24-24.13 140.29-24.35 140.29-24.6L140.29-24.6Q140.29-24.85 140.31-25.08 140.34-25.3 140.24-25.45L140.24-25.45Q140.09-25.85 140.11-26.25 140.14-26.65 140.24-27.05L140.24-27.05Q140.39-27.6 140.46-28.15 140.54-28.7 140.44-29.35L140.44-29.35 140.44-29.6Q140.64-30.1 140.66-30.6 140.69-31.1 140.74-31.5L140.74-31.5Q140.99-31.85 141.36-31.98 141.74-32.1 141.94-32.3L141.94-32.3Q142.74-32.35 143.44-32.3 144.14-32.25 144.84-32.45L144.84-32.45Q145.19-32.3 145.51-32.23 145.84-32.15 146.09-32.1L146.09-32.1Q146.64-31.7 146.64-31.05L146.64-31.05Q146.64-30.8 146.64-30.5 146.64-30.2 146.59-29.9L146.59-29.9Q146.64-29.7 146.74-29.55 146.84-29.4 146.89-29.15L146.89-29.15Q146.84-29.05 146.81-28.88 146.79-28.7 146.74-28.5L146.74-28.5Q146.79-28.3 146.84-28 146.89-27.7 146.94-27.45L146.94-27.45Q146.94-26.65 146.96-25.9 146.99-25.15 146.94-24.4L146.94-24.4Q146.94-23.6 146.96-23.35 146.99-23.1 147.19-22.35ZM139.89-9.75L139.89-9.75Q139.74-10.15 139.66-10.53 139.59-10.9 139.49-11.2L139.49-11.2Q139.34-11.55 139.11-11.85 138.89-12.15 138.74-12.5L138.74-12.5Q138.24-12.75 137.99-13L137.99-13Q137.74-13.1 137.51-13.15 137.29-13.2 137.04-13.25L137.04-13.25Q136.84-13.35 136.66-13.43 136.49-13.5 136.29-13.55L136.29-13.55Q135.94-13.4 135.61-13.25 135.29-13.1 134.99-12.95L134.99-12.95Q134.19-12.6 133.89-11.65L133.89-11.65Q133.84-11.45 133.84-11.25 133.84-11.05 133.79-10.8L133.79-10.8Q133.74-10.65 133.61-10.5 133.49-10.35 133.39-10.1L133.39-10.1 133.39-9.2Q133.49-8.55 133.76-7.98 134.04-7.4 134.69-7L134.69-7Q134.84-6.95 134.96-6.83 135.09-6.7 135.29-6.6L135.29-6.6Q135.59-6.3 135.89-6.3L135.89-6.3Q136.69-6.4 137.44-6.48 138.19-6.55 138.89-6.85L138.89-6.85Q139.19-7.1 139.34-7.35L139.34-7.35Q139.49-7.55 139.59-7.73 139.69-7.9 139.84-8.1L139.84-8.1 139.84-8.95Q139.84-9.2 139.84-9.4 139.84-9.6 139.89-9.75ZM175.34-2.45L175.34-2.45Q175.49-2.1 175.44-1.8 175.39-1.5 175.24-1.2L175.24-1.2Q175.19-1.15 175.04-1.07 174.89-1 174.79-0.9L174.79-0.9Q174.59-0.85 174.44-0.85 174.29-0.85 174.09-0.75L174.09-0.75Q173.34-0.6 173.19 0.05L173.19 0.05Q173.14 0.15 172.99 0.3L172.99 0.3Q172.64 0.35 172.49 0.43 172.34 0.5 171.89 0.75L171.89 0.75Q171.54 0.75 171.19 0.85 170.84 0.95 170.54 1.25L170.54 1.25Q170.44 1.25 170.39 1.28 170.34 1.3 170.24 1.3L170.24 1.3Q170.04 1.4 169.79 1.23 169.54 1.05 169.54 0.8L169.54 0.8 169.54 0.5Q169.34 0.4 169.06 0.5 168.79 0.6 168.64 0.3L168.64 0.3 168.64-0.45Q168.49-0.55 168.36-0.63 168.24-0.7 168.09-0.75L168.09-0.75Q167.89-1.15 167.64-1.6 167.39-2.05 167.14-2.4L167.14-2.4Q166.94-2.55 166.79-2.5 166.64-2.45 166.54-2.35L166.54-2.35Q166.44-2.25 166.39-2.13 166.34-2 166.24-1.9L166.24-1.9Q166.14-1.8 166.09-1.65 166.04-1.5 165.94-1.4L165.94-1.4Q165.29-1.1 164.64-0.88 163.99-0.65 163.39-0.5L163.39-0.5Q163.04-0.25 162.69-0.05 162.34 0.15 162.04 0.35L162.04 0.35Q161.74 0.4 161.44 0.5 161.14 0.6 160.89 0.65L160.89 0.65Q160.59 0.5 160.31 0.58 160.04 0.65 159.64 0.75L159.64 0.75Q159.19 0.65 158.69 0.53 158.19 0.4 157.64 0.3L157.64 0.3Q157.49 0.35 157.34 0.35 157.19 0.35 157.09 0.4L157.09 0.4Q156.89 0.3 156.76 0.2 156.64 0.1 156.44 0.05L156.44 0.05Q156.19-0.05 155.99 0.05 155.79 0.15 155.54 0.25L155.54 0.25Q155.29 0.15 154.99 0.13 154.69 0.1 154.39 0.05L154.39 0.05Q154.14-0.2 153.96-0.4 153.79-0.6 153.74-0.9L153.74-0.9Q153.64-1 153.54-1.07 153.44-1.15 153.39-1.2L153.39-1.2Q153.19-1.9 152.94-2.4L152.94-2.4Q152.24-3.9 151.99-5.7L151.99-5.7Q151.89-5.8 151.79-5.93 151.69-6.05 151.54-6.2L151.54-6.2Q151.49-6.65 151.44-7.08 151.39-7.5 151.29-8L151.29-8Q151.39-8.3 151.39-8.55L151.39-8.55Q151.29-9.05 151.19-9.45L151.19-9.45Q151.39-10.05 151.61-10.65 151.84-11.25 151.74-11.9L151.74-11.9Q151.84-12.1 151.99-12.28 152.14-12.45 152.24-12.6L152.24-12.6Q152.69-13.1 152.89-13.75L152.89-13.75Q153.04-14.3 153.41-14.7 153.79-15.1 154.24-15.35L154.24-15.35Q154.79-15.6 155.31-15.88 155.84-16.15 156.34-16.35L156.34-16.35Q156.44-16.35 156.61-16.32 156.79-16.3 156.89-16.35L156.89-16.35Q157.79-16.5 158.44-16.45L158.44-16.45Q158.74-16.4 159.04-16.45 159.34-16.5 159.59-16.5L159.59-16.5 160.64-16.7Q160.94-16.65 161.24-16.55 161.54-16.45 161.84-16.6L161.84-16.6Q161.94-16.6 162.01-16.57 162.09-16.55 162.14-16.55L162.14-16.55Q162.39-16.45 162.59-16.32 162.79-16.2 163.04-16.2L163.04-16.2Q163.59-16.1 163.74-16.4L163.74-16.4Q163.69-17.25 163.61-17.5 163.54-17.75 163.29-18.3L163.29-18.3Q163.14-18.6 163.09-18.93 163.04-19.25 162.99-19.55L162.99-19.55Q162.94-19.75 162.91-19.93 162.89-20.1 162.69-20.3L162.69-20.3Q162.04-20.5 161.09-20.6L161.09-20.6 160.79-20.6Q160.34-20.4 159.84-20.4 159.34-20.4 158.79-20.3L158.79-20.3Q158.44-20.25 158.06-20.1 157.69-19.95 157.29-19.85L157.29-19.85Q156.89-19.65 156.49-20.05L156.49-20.05Q156.34-20.5 156.36-20.98 156.39-21.45 156.44-21.95L156.44-21.95Q156.34-22.3 156.19-22.78 156.04-23.25 156.04-23.9L156.04-23.9 156.09-24.25Q156.04-24.35 155.91-24.45 155.79-24.55 155.69-24.6L155.69-24.6Q155.54-24.75 155.64-24.9L155.64-24.9Q155.64-25.05 155.79-25.05L155.79-25.05Q156.19-25.15 156.54-25.2 156.89-25.25 157.24-25.3L157.24-25.3 157.84-25.9Q157.94-25.95 158.09-25.95L158.09-25.95Q159.24-25.75 159.76-25.8 160.29-25.85 161.39-26.2L161.39-26.2Q161.94-26.15 162.46-26.05 162.99-25.95 163.54-26L163.54-26Q163.69-25.85 163.86-25.73 164.04-25.6 164.24-25.45L164.24-25.45Q164.49-25.55 164.74-25.63 164.99-25.7 165.19-25.75L165.19-25.75Q165.49-25.55 165.84-25.35L165.84-25.35Q166.09-25.3 166.26-25.45 166.44-25.6 166.64-25.6L166.64-25.6Q167.09-25.55 167.36-25.18 167.64-24.8 167.99-24.55L167.99-24.55Q168.29-24.35 168.56-24.05 168.84-23.75 169.14-23.5L169.14-23.5Q169.24-23.35 169.34-23.2 169.44-23.05 169.49-22.9L169.49-22.9Q169.74-22.7 169.94-22.58 170.14-22.45 170.29-22.25L170.29-22.25Q170.54-22.05 170.81-21.95 171.09-21.85 171.24-21.6L171.24-21.6Q171.34-21.35 171.44-21.08 171.54-20.8 171.79-20.6L171.79-20.6Q171.94-20.1 172.09-19.58 172.24-19.05 172.14-18.5L172.14-18.5Q172.14-18.25 172.09-18.05L172.09-18.05Q172.19-17.8 172.24-17.5 172.29-17.2 172.39-16.95L172.39-16.95 172.39-16.7Q172.39-16.55 172.36-16.38 172.34-16.2 172.39-16.1L172.39-16.1Q172.49-15.8 172.64-15.65L172.64-15.65Q172.64-15.35 172.39-15.1L172.39-15.1Q172.29-15.05 172.14-15 171.99-14.95 171.89-14.85L171.89-14.85Q171.29-14.5 171.74-13.95L171.74-13.95Q171.79-13.9 171.91-13.78 172.04-13.65 172.09-13.5L172.09-13.5Q172.14-13.3 172.14-13.08 172.14-12.85 172.19-12.6L172.19-12.6Q171.99-11.65 171.44-10.8L171.44-10.8Q171.59-10.1 171.91-9.45 172.24-8.8 172.49-8.1L172.49-8.1Q172.74-7.95 172.89-7.8 173.04-7.65 173.24-7.55L173.24-7.55Q173.29-7.4 173.31-7.35 173.34-7.3 173.34-7.2L173.34-7.2Q173.34-6.7 173.46-6.2 173.59-5.7 173.79-5.25L173.79-5.25Q173.99-4.8 174.19-4.4 174.39-4 174.69-3.6L174.69-3.6Q174.94-3.4 175.09-3.05 175.24-2.7 175.34-2.45ZM164.39-9.2L164.39-9.2Q164.09-9.95 163.64-10.2L163.64-10.2Q163.09-10.45 162.94-10.85L162.94-10.85Q162.89-11.05 162.74-11.1 162.59-11.15 162.44-11.2L162.44-11.2Q162.24-11.2 161.96-11.18 161.69-11.15 161.44-11.1L161.44-11.1Q161.14-11.1 160.86-11.2 160.59-11.3 160.34-11.35L160.34-11.35Q159.89-11.35 159.49-11.1L159.49-11.1Q159.29-10.95 159.14-10.83 158.99-10.7 158.84-10.5L158.84-10.5 158.19-9.3Q158.29-9 158.44-8.78 158.59-8.55 158.44-8.15L158.44-8.15Q158.54-7.7 158.66-7.23 158.79-6.75 159.04-6.3L159.04-6.3Q159.14-6.2 159.19-6.2L159.19-6.2Q159.74-6.1 160.29-6.1 160.84-6.1 161.34-6.15L161.34-6.15Q161.54-6.15 161.64-6.2L161.64-6.2Q162.19-6.5 162.99-6.75L162.99-6.75Q163.29-6.8 163.54-7.2L163.54-7.2Q163.74-7.65 163.94-8.18 164.14-8.7 164.39-9.2ZM153.79-1L153.79-1Q153.79-1 153.76-1 153.74-1 153.74-0.9L153.74-0.9Q153.84-1 153.79-1ZM195.98-3.6L195.98-3.6Q195.73-3.1 195.53-2.6 195.33-2.1 195.08-1.6L195.08-1.6 194.03-0.6Q193.08 0.45 191.78 0.65L191.78 0.65Q191.13 0.75 190.46 0.73 189.78 0.7 189.08 0.5L189.08 0.5Q188.68 0.4 188.26 0.23 187.83 0.05 187.43-0.15L187.43-0.15Q187.13-0.3 186.78-0.38 186.43-0.45 186.03-0.5L186.03-0.5Q185.88-0.6 185.68-0.73 185.48-0.85 185.23-1L185.23-1Q184.88-1.6 184.41-2.1 183.93-2.6 183.68-3.35L183.68-3.35Q183.68-3.95 183.63-4.17 183.58-4.4 183.33-5.1L183.33-5.1 183.33-8.4Q183.33-8.8 183.31-9.18 183.28-9.55 183.18-9.9L183.18-9.9Q183.13-10.25 183.16-10.5 183.18-10.75 183.23-11.1L183.23-11.1Q183.38-11.7 183.23-12.35L183.23-12.35Q183.38-12.95 183.58-13.55L183.58-13.55Q183.58-13.85 183.43-14.4 183.28-14.95 183.08-15.45L183.08-15.45Q182.83-15.45 182.58-15.5 182.33-15.55 182.03-15.6L182.03-15.6Q181.73-15.5 181.41-15.4 181.08-15.3 180.68-15.2L180.68-15.2Q180.53-15.1 180.23-15.1L180.23-15.1Q180.18-15.1 180.06-15.23 179.93-15.35 179.93-15.4L179.93-15.4Q179.88-15.55 179.88-15.7 179.88-15.85 179.88-16L179.88-16Q179.83-16.4 179.83-16.85 179.83-17.3 179.83-17.7L179.83-17.7Q179.83-18.1 179.78-18.48 179.73-18.85 179.63-19.2L179.63-19.2Q179.68-19.45 179.73-19.68 179.78-19.9 179.83-20.1L179.83-20.1 179.83-21.05Q179.83-21.45 179.96-21.75 180.08-22.05 180.48-22.3L180.48-22.3Q180.78-22.4 181.16-22.4 181.53-22.4 181.98-22.4L181.98-22.4Q182.38-22.35 182.81-22.43 183.23-22.5 183.58-22.85L183.58-22.85Q183.68-22.95 183.86-22.95 184.03-22.95 184.13-22.95L184.13-22.95Q185.13-22.9 185.88-23.75L185.88-23.75Q185.93-24.05 186.18-24.6L186.18-24.6Q186.03-24.95 185.93-25.38 185.83-25.8 185.68-26.2L185.68-26.2Q185.78-26.35 185.88-26.5 185.98-26.65 186.03-26.85L186.03-26.85Q186.13-27.1 186.03-27.33 185.93-27.55 185.98-27.7L185.98-27.7Q185.88-27.95 185.88-28.05 185.88-28.15 185.78-28.4L185.78-28.4Q185.83-28.5 185.88-28.63 185.93-28.75 185.98-28.85L185.98-28.85Q186.03-29.05 186.08-29.18 186.13-29.3 186.18-29.5L186.18-29.5 186.73-29.5Q186.98-29.45 187.26-29.43 187.53-29.4 187.78-29.45L187.78-29.45Q187.88-29.45 188.03-29.43 188.18-29.4 188.33-29.4L188.33-29.4Q189.18-29.3 190.01-29.15 190.83-29 191.63-29L191.63-29Q191.73-29 191.86-28.95 191.98-28.9 192.03-28.85L192.03-28.85Q192.23-28.75 192.38-28.6L192.38-28.6Q192.33-28.4 192.23-28.23 192.13-28.05 192.08-27.9L192.08-27.9Q192.03-27.7 192.01-27.45 191.98-27.2 191.93-26.95L191.93-26.95Q191.88-26.6 191.83-26.25 191.78-25.9 191.68-25.45L191.68-25.45Q191.73-25.4 191.73-25.2 191.73-25 191.78-24.85L191.78-24.85Q191.73-24.5 191.66-24.2 191.58-23.9 191.53-23.5L191.53-23.5Q192.18-23 192.96-22.65 193.73-22.3 194.83-22L194.83-22Q195.38-21.65 195.48-20.85L195.48-20.85Q195.48-19.7 195.33-18.55L195.33-18.55Q195.28-18.1 195.23-17.65 195.18-17.2 195.23-16.75L195.23-16.75Q194.58-16.35 193.68-16.35L193.68-16.35Q193.53-16.35 193.38-16.3 193.23-16.25 193.13-16.25L193.13-16.25Q192.33-16.2 191.91-16.1 191.48-16 190.58-15.6L190.58-15.6Q190.43-15.4 190.43-15.05L190.43-15.05Q190.38-14.75 190.36-14.45 190.33-14.15 190.38-13.8L190.38-13.8Q190.38-13.8 190.38-13.78 190.38-13.75 190.28-13.7L190.28-13.7Q189.98-13.1 189.83-12.8 189.68-12.5 189.66-12.2 189.63-11.9 189.63-11.2L189.63-11.2 189.63-8.8Q189.63-8.55 189.68-8.5L189.68-8.5Q189.73-8.05 190.13-7.75L190.13-7.75Q190.33-7.7 190.51-7.65 190.68-7.6 190.78-7.4L190.78-7.4Q191.23-6.8 191.81-6.78 192.38-6.75 193.03-6.95L193.03-6.95Q193.23-7.05 193.43-7.15 193.63-7.25 193.83-7.3L193.83-7.3Q194.23-7.2 194.33-6.85 194.43-6.5 194.68-6.25L194.68-6.25Q194.93-6 195.11-5.7 195.28-5.4 195.48-5.1L195.48-5.1Q195.58-4.8 195.73-4.42 195.88-4.05 195.98-3.6ZM224.33-2.45L224.33-2.45Q224.48-2.1 224.43-1.8 224.38-1.5 224.23-1.2L224.23-1.2Q224.18-1.15 224.03-1.07 223.88-1 223.78-0.9L223.78-0.9Q223.58-0.85 223.43-0.85 223.28-0.85 223.08-0.75L223.08-0.75Q222.33-0.6 222.18 0.05L222.18 0.05Q222.13 0.15 221.98 0.3L221.98 0.3Q221.63 0.35 221.48 0.43 221.33 0.5 220.88 0.75L220.88 0.75Q220.53 0.75 220.18 0.85 219.83 0.95 219.53 1.25L219.53 1.25Q219.43 1.25 219.38 1.28 219.33 1.3 219.23 1.3L219.23 1.3Q219.03 1.4 218.78 1.23 218.53 1.05 218.53 0.8L218.53 0.8 218.53 0.5Q218.33 0.4 218.06 0.5 217.78 0.6 217.63 0.3L217.63 0.3 217.63-0.45Q217.48-0.55 217.36-0.63 217.23-0.7 217.08-0.75L217.08-0.75Q216.88-1.15 216.63-1.6 216.38-2.05 216.13-2.4L216.13-2.4Q215.93-2.55 215.78-2.5 215.63-2.45 215.53-2.35L215.53-2.35Q215.43-2.25 215.38-2.13 215.33-2 215.23-1.9L215.23-1.9Q215.13-1.8 215.08-1.65 215.03-1.5 214.93-1.4L214.93-1.4Q214.28-1.1 213.63-0.88 212.98-0.65 212.38-0.5L212.38-0.5Q212.03-0.25 211.68-0.05 211.33 0.15 211.03 0.35L211.03 0.35Q210.73 0.4 210.43 0.5 210.13 0.6 209.88 0.65L209.88 0.65Q209.58 0.5 209.31 0.58 209.03 0.65 208.63 0.75L208.63 0.75Q208.18 0.65 207.68 0.53 207.18 0.4 206.63 0.3L206.63 0.3Q206.48 0.35 206.33 0.35 206.18 0.35 206.08 0.4L206.08 0.4Q205.88 0.3 205.76 0.2 205.63 0.1 205.43 0.05L205.43 0.05Q205.18-0.05 204.98 0.05 204.78 0.15 204.53 0.25L204.53 0.25Q204.28 0.15 203.98 0.13 203.68 0.1 203.38 0.05L203.38 0.05Q203.13-0.2 202.96-0.4 202.78-0.6 202.73-0.9L202.73-0.9Q202.63-1 202.53-1.07 202.43-1.15 202.38-1.2L202.38-1.2Q202.18-1.9 201.93-2.4L201.93-2.4Q201.23-3.9 200.98-5.7L200.98-5.7Q200.88-5.8 200.78-5.93 200.68-6.05 200.53-6.2L200.53-6.2Q200.48-6.65 200.43-7.08 200.38-7.5 200.28-8L200.28-8Q200.38-8.3 200.38-8.55L200.38-8.55Q200.28-9.05 200.18-9.45L200.18-9.45Q200.38-10.05 200.61-10.65 200.83-11.25 200.73-11.9L200.73-11.9Q200.83-12.1 200.98-12.28 201.13-12.45 201.23-12.6L201.23-12.6Q201.68-13.1 201.88-13.75L201.88-13.75Q202.03-14.3 202.41-14.7 202.78-15.1 203.23-15.35L203.23-15.35Q203.78-15.6 204.31-15.88 204.83-16.15 205.33-16.35L205.33-16.35Q205.43-16.35 205.61-16.32 205.78-16.3 205.88-16.35L205.88-16.35Q206.78-16.5 207.43-16.45L207.43-16.45Q207.73-16.4 208.03-16.45 208.33-16.5 208.58-16.5L208.58-16.5 209.63-16.7Q209.93-16.65 210.23-16.55 210.53-16.45 210.83-16.6L210.83-16.6Q210.93-16.6 211.01-16.57 211.08-16.55 211.13-16.55L211.13-16.55Q211.38-16.45 211.58-16.32 211.78-16.2 212.03-16.2L212.03-16.2Q212.58-16.1 212.73-16.4L212.73-16.4Q212.68-17.25 212.61-17.5 212.53-17.75 212.28-18.3L212.28-18.3Q212.13-18.6 212.08-18.93 212.03-19.25 211.98-19.55L211.98-19.55Q211.93-19.75 211.91-19.93 211.88-20.1 211.68-20.3L211.68-20.3Q211.03-20.5 210.08-20.6L210.08-20.6 209.78-20.6Q209.33-20.4 208.83-20.4 208.33-20.4 207.78-20.3L207.78-20.3Q207.43-20.25 207.06-20.1 206.68-19.95 206.28-19.85L206.28-19.85Q205.88-19.65 205.48-20.05L205.48-20.05Q205.33-20.5 205.36-20.98 205.38-21.45 205.43-21.95L205.43-21.95Q205.33-22.3 205.18-22.78 205.03-23.25 205.03-23.9L205.03-23.9 205.08-24.25Q205.03-24.35 204.91-24.45 204.78-24.55 204.68-24.6L204.68-24.6Q204.53-24.75 204.63-24.9L204.63-24.9Q204.63-25.05 204.78-25.05L204.78-25.05Q205.18-25.15 205.53-25.2 205.88-25.25 206.23-25.3L206.23-25.3 206.83-25.9Q206.93-25.95 207.08-25.95L207.08-25.95Q208.23-25.75 208.76-25.8 209.28-25.85 210.38-26.2L210.38-26.2Q210.93-26.15 211.46-26.05 211.98-25.95 212.53-26L212.53-26Q212.68-25.85 212.86-25.73 213.03-25.6 213.23-25.45L213.23-25.45Q213.48-25.55 213.73-25.63 213.98-25.7 214.18-25.75L214.18-25.75Q214.48-25.55 214.83-25.35L214.83-25.35Q215.08-25.3 215.26-25.45 215.43-25.6 215.63-25.6L215.63-25.6Q216.08-25.55 216.36-25.18 216.63-24.8 216.98-24.55L216.98-24.55Q217.28-24.35 217.56-24.05 217.83-23.75 218.13-23.5L218.13-23.5Q218.23-23.35 218.33-23.2 218.43-23.05 218.48-22.9L218.48-22.9Q218.73-22.7 218.93-22.58 219.13-22.45 219.28-22.25L219.28-22.25Q219.53-22.05 219.81-21.95 220.08-21.85 220.23-21.6L220.23-21.6Q220.33-21.35 220.43-21.08 220.53-20.8 220.78-20.6L220.78-20.6Q220.93-20.1 221.08-19.58 221.23-19.05 221.13-18.5L221.13-18.5Q221.13-18.25 221.08-18.05L221.08-18.05Q221.18-17.8 221.23-17.5 221.28-17.2 221.38-16.95L221.38-16.95 221.38-16.7Q221.38-16.55 221.36-16.38 221.33-16.2 221.38-16.1L221.38-16.1Q221.48-15.8 221.63-15.65L221.63-15.65Q221.63-15.35 221.38-15.1L221.38-15.1Q221.28-15.05 221.13-15 220.98-14.95 220.88-14.85L220.88-14.85Q220.28-14.5 220.73-13.95L220.73-13.95Q220.78-13.9 220.91-13.78 221.03-13.65 221.08-13.5L221.08-13.5Q221.13-13.3 221.13-13.08 221.13-12.85 221.18-12.6L221.18-12.6Q220.98-11.65 220.43-10.8L220.43-10.8Q220.58-10.1 220.91-9.45 221.23-8.8 221.48-8.1L221.48-8.1Q221.73-7.95 221.88-7.8 222.03-7.65 222.23-7.55L222.23-7.55Q222.28-7.4 222.31-7.35 222.33-7.3 222.33-7.2L222.33-7.2Q222.33-6.7 222.46-6.2 222.58-5.7 222.78-5.25L222.78-5.25Q222.98-4.8 223.18-4.4 223.38-4 223.68-3.6L223.68-3.6Q223.93-3.4 224.08-3.05 224.23-2.7 224.33-2.45ZM213.38-9.2L213.38-9.2Q213.08-9.95 212.63-10.2L212.63-10.2Q212.08-10.45 211.93-10.85L211.93-10.85Q211.88-11.05 211.73-11.1 211.58-11.15 211.43-11.2L211.43-11.2Q211.23-11.2 210.96-11.18 210.68-11.15 210.43-11.1L210.43-11.1Q210.13-11.1 209.86-11.2 209.58-11.3 209.33-11.35L209.33-11.35Q208.88-11.35 208.48-11.1L208.48-11.1Q208.28-10.95 208.13-10.83 207.98-10.7 207.83-10.5L207.83-10.5 207.18-9.3Q207.28-9 207.43-8.78 207.58-8.55 207.43-8.15L207.43-8.15Q207.53-7.7 207.66-7.23 207.78-6.75 208.03-6.3L208.03-6.3Q208.13-6.2 208.18-6.2L208.18-6.2Q208.73-6.1 209.28-6.1 209.83-6.1 210.33-6.15L210.33-6.15Q210.53-6.15 210.63-6.2L210.63-6.2Q211.18-6.5 211.98-6.75L211.98-6.75Q212.28-6.8 212.53-7.2L212.53-7.2Q212.73-7.65 212.93-8.18 213.13-8.7 213.38-9.2ZM202.78-1L202.78-1Q202.78-1 202.76-1 202.73-1 202.73-0.9L202.73-0.9Q202.83-1 202.78-1Z" opacity="1" transform="matrix(1,0,0,1,0,0)" fill="#999999" class="wordmark-text-0" data-fill-palette-color="primary" id="text-0"></path></svg></g></svg></g></svg></g></svg></g><g><svg viewBox="0 0 138.02808945432471 138.02808945432471" height="138.02808945432471" width="138.02808945432471"><g><svg></svg></g><g id="icon-0"><svg viewBox="0 0 138.02808945432471 138.02808945432471" height="138.02808945432471" width="138.02808945432471"><g><rect width="125.50331837421007" height="125.50331837421007" x="6.262385540057323" y="6.262385540057323" fill="#999999" data-fill-palette-color="accent"></rect><rect width="125.50331837421007" height="125.50331837421007" x="12.524771080114647" y="-8.881784197001252e-16" fill="#999999" opacity="0.5" data-fill-palette-color="accent"></rect></g><g transform="matrix(1,0,0,1,29.87768520698551,17.8925301144495)"><svg viewBox="0 0 78.27271904035369 102.24302922542572" height="102.24302922542572" width="78.27271904035369"><g><svg xmlns="http://www.w3.org/2000/svg" xmlns:xlink="http://www.w3.org/1999/xlink" version="1.1" x="0" y="0" viewBox="17.6 4 68.9 90" enable-background="new 0 0 100 100" xml:space="preserve" height="102.24302922542572" width="78.27271904035369" class="icon-dxe-0" data-fill-palette-color="quaternary" id="dxe-0"><g fill="#e0ded5" data-fill-palette-color="quaternary"><path d="M86 36.7C86.1 36.7 86.3 36.6 86.4 36.6V13.7C86.4 4.1 53.4 4 52 4S17.6 4.1 17.6 13.7V36.5C17.8 36.5 17.9 36.6 18 36.7 19.5 37.2 52.9 48.4 86 36.7M22.1 13.4C22.3 13.2 22.6 13 23 12.8 23.3 12.6 23.6 12.5 24 12.3 24.3 12.1 24.7 12 25.2 11.8 28 10.8 36.3 8.3 52 8.3 67.1 8.3 75.3 10.6 78.2 11.5 81.2 12.5 82.1 13.4 82.1 13.6L81.8 13.9C81.7 14 81.5 14.1 81.4 14.2L81.3 14.3C81.1 14.4 80.9 14.5 80.6 14.7L80.4 14.8C80.2 14.9 79.9 15 79.6 15.1L79.3 15.2C79 15.3 78.7 15.4 78.3 15.6L78 15.7C77.6 15.8 77.3 15.9 76.9 16.1L76.4 16.2C76 16.3 75.6 16.4 75.1 16.5L74.5 16.6 73 16.9C72.7 17 72.3 17 71.9 17.1L70.9 17.3C70.6 17.4 70.2 17.4 69.9 17.5H69.7C69.3 17.6 69 17.6 68.6 17.7S67.8 17.8 67.3 17.9C66.9 18 66.4 18 66 18.1 65.6 18.1 65.1 18.2 64.7 18.2 64.2 18.3 63.7 18.3 63.2 18.3 62.8 18.3 62.3 18.4 61.9 18.4 61.3 18.4 60.7 18.5 60.1 18.5L58.8 18.6C58.1 18.6 57.4 18.7 56.7 18.7H47.6C46.9 18.7 46.2 18.7 45.5 18.6L44.2 18.5C43.6 18.5 43 18.4 42.4 18.4 42 18.4 41.5 18.3 41.1 18.3 40.6 18.3 40.1 18.2 39.6 18.2 39.2 18.2 38.7 18.1 38.3 18.1 37.8 18 37.4 18 37 17.9S36.1 17.8 35.7 17.7 35 17.6 34.6 17.5L34 17.7C33.7 17.7 33.4 17.6 33.1 17.6L32.1 17.4C31.7 17.3 31.3 17.3 31 17.2L29.5 16.9 28.9 16.8C28.4 16.7 28 16.6 27.6 16.5L27.1 16.3C26.7 16.2 26.3 16.1 26 15.9L25.6 15.8 24.7 15.5 24.4 15.4C24.1 15.3 23.9 15.2 23.6 15L23.5 14.9C23.3 14.8 23 14.7 22.8 14.5L22.7 14.4C22.5 14.3 22.4 14.2 22.2 14L22 13.8C21.8 13.7 21.9 13.6 22.1 13.4" fill="#e0ded5" data-fill-palette-color="quaternary"></path><path d="M86.2 61.9C86.3 61.9 86.4 61.9 86.5 61.8V41.1C75.1 44.9 63.6 46.3 53.3 46.3 36.3 46.3 22.5 42.7 17.7 41.1V62.1C23.9 64.2 55.7 73.7 86.2 61.9" fill="#e0ded5" data-fill-palette-color="quaternary"></path><path d="M17.6 66.5V84.3C17.6 93.9 50.6 94 52 94S86.4 93.9 86.4 84.3V66.4C74.9 70.6 63.5 72.1 53.2 72.1 36.9 72.1 23.5 68.5 17.6 66.5" fill="#e0ded5" data-fill-palette-color="quaternary"></path></g></svg></g></svg></g></svg></g></svg></g></svg></g><defs></defs></svg><rect width="395.52" height="99.67073052999045" fill="none" stroke="none" visibility="hidden"></rect></g></svg></g></svg>